<svg width="20" height="20" fill="none" xmlns="http://www.w3.org/2000/svg"><path id="twitter" fill="#FFF" fill-opacity="0" d="M0 0h20v20H0z"/><path id="Vector 2" d="M0 16.373c.912.068 2.947.082 3.79-.406a25.113 25.113 0 0 0 1.895-1.22c-.983-.27-3.117-1.26-3.79-3.05h1.263C2.315 11.089.632 9.828.632 8.04l1.473.406C1.474 7.43-.126 4.867 1.053 2.753c0 0 4.842 4.066 8.632 4.473-.211-1.423-.548-3.172 1.473-4.473 2.527-1.626 5.474-.203 5.684.407.169.488 1.755-.34 2.526-.813L18.315 4.38H20l-1.895 2.032c.21 1.559-.084 5.327-2.947 7.929C11.58 17.593 9.474 18 6.526 18 3.58 18 .421 16.78 0 16.373Z" fill="#F1F5F4" fill-opacity="1" fill-rule="evenodd"/></svg>